<svg width="38" height="37" viewBox="0 0 38 37" fill="none" xmlns="http://www.w3.org/2000/svg">
<g clip-path="url(#clip0)">
<circle cx="19" cy="18" r="25" fill="#EB5757"/>
<path d="M13.9559 9C14.0292 9 14.0925 9.02667 14.1459 9.08C14.1992 9.13333 14.2259 9.19667 14.2259 9.27V10.88C14.2259 10.9533 14.1992 11.0167 14.1459 11.07C14.0925 11.1233 14.0292 11.15 13.9559 11.15H11.8059V15.73C11.8059 15.8033 11.7792 15.8667 11.7259 15.92C11.6725 15.9733 11.6092 16 11.5359 16H9.47586C9.40253 16 9.33919 15.9733 9.28586 15.92C9.23253 15.8667 9.20586 15.8033 9.20586 15.73V11.15H7.05586C6.98253 11.15 6.91919 11.1233 6.86586 11.07C6.81253 11.0167 6.78586 10.9533 6.78586 10.88V9.27C6.78586 9.19667 6.81253 9.13333 6.86586 9.08C6.91919 9.02667 6.98253 9 7.05586 9H13.9559ZM22.722 13.11C22.722 14.13 22.382 14.8833 21.702 15.37C21.0286 15.8567 20.1286 16.1 19.002 16.1C17.8753 16.1 16.972 15.8567 16.292 15.37C15.6186 14.8833 15.282 14.1233 15.282 13.09V11.91C15.282 11.23 15.442 10.6667 15.762 10.22C16.0886 9.76667 16.532 9.43333 17.092 9.22C17.652 9.00667 18.2886 8.9 19.002 8.9C19.7153 8.9 20.3486 9.00667 20.902 9.22C21.462 9.43333 21.9053 9.76333 22.232 10.21C22.5586 10.6567 22.722 11.2167 22.722 11.89V13.11ZM17.982 13.3C17.982 13.5733 18.072 13.7833 18.252 13.93C18.4386 14.0767 18.6886 14.15 19.002 14.15C19.3153 14.15 19.562 14.0767 19.742 13.93C19.9286 13.7767 20.022 13.5633 20.022 13.29V11.71C20.022 11.4367 19.9286 11.2267 19.742 11.08C19.562 10.9267 19.3153 10.85 19.002 10.85C18.6886 10.85 18.4386 10.9233 18.252 11.07C18.072 11.2167 17.982 11.4267 17.982 11.7V13.3ZM28.808 9.27C28.908 9.09 29.0514 9 29.238 9H31.068C31.1414 9 31.2047 9.02667 31.258 9.08C31.3114 9.13333 31.338 9.19667 31.338 9.27V15.73C31.338 15.8033 31.3114 15.8667 31.258 15.92C31.2047 15.9733 31.1414 16 31.068 16H29.258C29.1847 16 29.1214 15.9733 29.068 15.92C29.0147 15.8667 28.988 15.8033 28.988 15.73V12.63L28.258 14.07C28.238 14.1167 28.1914 14.17 28.118 14.23C28.0447 14.29 27.9514 14.32 27.838 14.32H27.158C27.0447 14.32 26.9514 14.29 26.878 14.23C26.8047 14.17 26.758 14.1167 26.738 14.07L26.008 12.63V15.73C26.008 15.8033 25.9814 15.8667 25.928 15.92C25.8747 15.9733 25.8114 16 25.738 16H23.928C23.8547 16 23.7914 15.9733 23.738 15.92C23.6847 15.8667 23.658 15.8033 23.658 15.73V9.27C23.658 9.19667 23.6847 9.13333 23.738 9.08C23.7914 9.02667 23.8547 9 23.928 9H25.758C25.9447 9 26.088 9.09 26.188 9.27L27.498 11.67L28.808 9.27ZM6.22781 21C7.35448 21 8.25448 21.2433 8.92781 21.73C9.60781 22.2167 9.94781 22.97 9.94781 23.99V25.01C9.94781 26.05 9.61115 26.81 8.93781 27.29C8.27115 27.7633 7.36781 28 6.22781 28H3.03781C2.96448 28 2.90115 27.9733 2.84781 27.92C2.79448 27.8667 2.76781 27.8033 2.76781 27.73V21.27C2.76781 21.1967 2.79448 21.1333 2.84781 21.08C2.90115 21.0267 2.96448 21 3.03781 21H6.22781ZM6.27781 26.05C6.59115 26.05 6.83781 25.9767 7.01781 25.83C7.20448 25.6767 7.29781 25.4633 7.29781 25.19V23.81C7.29781 23.5367 7.20448 23.3267 7.01781 23.18C6.83781 23.0267 6.59115 22.95 6.27781 22.95H5.36781V26.05H6.27781ZM13.3139 27.66C13.2272 27.8867 13.0772 28 12.8639 28H10.9739C10.9139 28 10.8606 27.98 10.8139 27.94C10.7739 27.8933 10.7539 27.84 10.7539 27.78L10.7639 27.72L12.9439 21.33C12.9706 21.2433 13.0206 21.1667 13.0939 21.1C13.1672 21.0333 13.2672 21 13.3939 21H16.1739C16.3006 21 16.4006 21.0333 16.4739 21.1C16.5472 21.1667 16.5972 21.2433 16.6239 21.33L18.8039 27.72L18.8139 27.78C18.8139 27.84 18.7906 27.8933 18.7439 27.94C18.7039 27.98 18.6539 28 18.5939 28H16.7039C16.4906 28 16.3406 27.8867 16.2539 27.66L16.0039 26.96H13.5639L13.3139 27.66ZM14.7839 22.93L14.0739 25.01H15.4939L14.7839 22.93ZM26.51 25.95C26.5833 25.95 26.6467 25.9767 26.7 26.03C26.7533 26.0833 26.78 26.1467 26.78 26.22V27.73C26.78 27.8033 26.7533 27.8667 26.7 27.92C26.6467 27.9733 26.5833 28 26.51 28H20.67C20.5967 28 20.5333 27.9733 20.48 27.92C20.4267 27.8667 20.4 27.8033 20.4 27.73V21.27C20.4 21.1967 20.4267 21.1333 20.48 21.08C20.5333 21.0267 20.5967 21 20.67 21H22.83C22.9033 21 22.9667 21.0267 23.02 21.08C23.0733 21.1333 23.1 21.1967 23.1 21.27V25.95H26.51ZM34.9861 26.05C35.0594 26.05 35.1228 26.0767 35.1761 26.13C35.2294 26.1833 35.2561 26.2467 35.2561 26.32V27.73C35.2561 27.8033 35.2294 27.8667 35.1761 27.92C35.1228 27.9733 35.0594 28 34.9861 28H28.6661C28.5928 28 28.5294 27.9733 28.4761 27.92C28.4228 27.8667 28.3961 27.8033 28.3961 27.73V21.27C28.3961 21.1967 28.4228 21.1333 28.4761 21.08C28.5294 21.0267 28.5928 21 28.6661 21H34.8861C34.9594 21 35.0228 21.0267 35.0761 21.08C35.1294 21.1333 35.1561 21.1967 35.1561 21.27V22.68C35.1561 22.7533 35.1294 22.8167 35.0761 22.87C35.0228 22.9233 34.9594 22.95 34.8861 22.95H30.9961V23.58H34.3361C34.4094 23.58 34.4728 23.6067 34.5261 23.66C34.5794 23.7133 34.6061 23.7767 34.6061 23.85V25.15C34.6061 25.2233 34.5794 25.2867 34.5261 25.34C34.4728 25.3933 34.4094 25.42 34.3361 25.42H30.9961V26.05H34.9861Z" fill="white"/>
<path d="M11.8059 11.15V10.9C11.6678 10.9 11.5559 11.0119 11.5559 11.15H11.8059ZM11.7259 15.92L11.9026 16.0968L11.9026 16.0968L11.7259 15.92ZM9.28586 15.92L9.10908 16.0968L9.10908 16.0968L9.28586 15.92ZM9.20586 11.15H9.45586C9.45586 11.0119 9.34393 10.9 9.20586 10.9V11.15ZM13.9559 9.25C13.959 9.25 13.9606 9.25028 13.9611 9.25037C13.9616 9.25046 13.9615 9.25049 13.9613 9.25041C13.9604 9.25002 13.963 9.25074 13.9691 9.25678L14.3226 8.90322C14.2239 8.8045 14.0976 8.75 13.9559 8.75V9.25ZM13.9691 9.25678C13.9751 9.26281 13.9758 9.26544 13.9755 9.26451C13.9754 9.26432 13.9754 9.2643 13.9755 9.26475C13.9756 9.26525 13.9759 9.26689 13.9759 9.27H14.4759C14.4759 9.12828 14.4214 9.00194 14.3226 8.90322L13.9691 9.25678ZM13.9759 9.27V10.88H14.4759V9.27H13.9759ZM13.9759 10.88C13.9759 10.8831 13.9756 10.8848 13.9755 10.8852C13.9754 10.8857 13.9754 10.8857 13.9755 10.8855C13.9758 10.8846 13.9751 10.8872 13.9691 10.8932L14.3226 11.2468C14.4214 11.1481 14.4759 11.0217 14.4759 10.88H13.9759ZM13.9691 10.8932C13.963 10.8993 13.9604 10.9 13.9613 10.8996C13.9615 10.8995 13.9616 10.8995 13.9611 10.8996C13.9606 10.8997 13.959 10.9 13.9559 10.9V11.4C14.0976 11.4 14.2239 11.3455 14.3226 11.2468L13.9691 10.8932ZM13.9559 10.9H11.8059V11.4H13.9559V10.9ZM11.5559 11.15V15.73H12.0559V11.15H11.5559ZM11.5559 15.73C11.5559 15.7331 11.5556 15.7348 11.5555 15.7352C11.5554 15.7357 11.5554 15.7357 11.5555 15.7355C11.5558 15.7346 11.5551 15.7372 11.5491 15.7432L11.9026 16.0968C12.0014 15.9981 12.0559 15.8717 12.0559 15.73H11.5559ZM11.5491 15.7432C11.543 15.7493 11.5404 15.75 11.5413 15.7496C11.5415 15.7495 11.5416 15.7495 11.5411 15.7496C11.5406 15.7497 11.539 15.75 11.5359 15.75V16.25C11.6776 16.25 11.8039 16.1955 11.9026 16.0968L11.5491 15.7432ZM11.5359 15.75H9.47586V16.25H11.5359V15.75ZM9.47586 15.75C9.47275 15.75 9.47111 15.7497 9.47061 15.7496C9.47016 15.7495 9.47018 15.7495 9.47037 15.7496C9.4713 15.75 9.46867 15.7493 9.46264 15.7432L9.10908 16.0968C9.2078 16.1955 9.33414 16.25 9.47586 16.25V15.75ZM9.46264 15.7432C9.4566 15.7372 9.45588 15.7346 9.45627 15.7355C9.45635 15.7357 9.45632 15.7357 9.45623 15.7352C9.45614 15.7348 9.45586 15.7331 9.45586 15.73H8.95586C8.95586 15.8717 9.01036 15.9981 9.10908 16.0968L9.46264 15.7432ZM9.45586 15.73V11.15H8.95586V15.73H9.45586ZM9.20586 10.9H7.05586V11.4H9.20586V10.9ZM7.05586 10.9C7.05275 10.9 7.05111 10.8997 7.05061 10.8996C7.05016 10.8995 7.05018 10.8995 7.05037 10.8996C7.0513 10.9 7.04867 10.8993 7.04264 10.8932L6.68908 11.2468C6.7878 11.3455 6.91414 11.4 7.05586 11.4V10.9ZM7.04264 10.8932C7.0366 10.8872 7.03588 10.8846 7.03627 10.8855C7.03635 10.8857 7.03632 10.8857 7.03623 10.8852C7.03614 10.8848 7.03586 10.8831 7.03586 10.88H6.53586C6.53586 11.0217 6.59036 11.1481 6.68908 11.2468L7.04264 10.8932ZM7.03586 10.88V9.27H6.53586V10.88H7.03586ZM7.03586 9.27C7.03586 9.26689 7.03614 9.26525 7.03623 9.26475C7.03632 9.2643 7.03635 9.26432 7.03627 9.26451C7.03588 9.26544 7.0366 9.26281 7.04264 9.25678L6.68908 8.90322C6.59036 9.00194 6.53586 9.12828 6.53586 9.27H7.03586ZM7.04264 9.25678C7.04867 9.25074 7.0513 9.25002 7.05037 9.25041C7.05018 9.25049 7.05016 9.25046 7.05061 9.25037C7.05111 9.25028 7.05275 9.25 7.05586 9.25V8.75C6.91414 8.75 6.7878 8.8045 6.68908 8.90322L7.04264 9.25678ZM7.05586 9.25H13.9559V8.75H7.05586V9.25ZM21.702 15.37L21.5565 15.1667L21.5555 15.1674L21.702 15.37ZM16.292 15.37L16.1455 15.5726L16.1465 15.5733L16.292 15.37ZM15.762 10.22L15.5591 10.0738L15.5587 10.0744L15.762 10.22ZM17.092 9.22L17.003 8.98638L17.092 9.22ZM20.902 9.22L20.812 9.45327L20.813 9.45362L20.902 9.22ZM22.232 10.21L22.0302 10.3576L22.0302 10.3576L22.232 10.21ZM18.252 13.93L18.094 14.1238L18.0975 14.1266L18.252 13.93ZM19.742 13.93L19.8999 14.1238L19.9006 14.1232L19.742 13.93ZM19.742 11.08L19.5797 11.2705L19.5875 11.2766L19.742 11.08ZM18.252 11.07L18.0975 10.8734L18.094 10.8762L18.252 11.07ZM22.472 13.11C22.472 14.0693 22.1561 14.7375 21.5565 15.1667L21.8475 15.5733C22.6078 15.0292 22.972 14.1907 22.972 13.11H22.472ZM21.5555 15.1674C20.9376 15.614 20.0944 15.85 19.002 15.85V16.35C20.1628 16.35 21.1196 16.0994 21.8484 15.5726L21.5555 15.1674ZM19.002 15.85C17.9096 15.85 17.0625 15.614 16.4375 15.1667L16.1465 15.5733C16.8814 16.0993 17.8409 16.35 19.002 16.35V15.85ZM16.4384 15.1674C15.846 14.7392 15.532 14.065 15.532 13.09H15.032C15.032 14.1817 15.3912 15.0274 16.1455 15.5726L16.4384 15.1674ZM15.532 13.09V11.91H15.032V13.09H15.532ZM15.532 11.91C15.532 11.2697 15.6822 10.7606 15.9652 10.3656L15.5587 10.0744C15.2017 10.5727 15.032 11.1903 15.032 11.91H15.532ZM15.9648 10.3662C16.2608 9.95538 16.6632 9.65087 17.181 9.45362L17.003 8.98638C16.4007 9.21579 15.9165 9.57795 15.5591 10.0738L15.9648 10.3662ZM17.181 9.45362C17.7077 9.25296 18.3134 9.15 19.002 9.15V8.65C18.2639 8.65 17.5962 8.76037 17.003 8.98638L17.181 9.45362ZM19.002 9.15C19.6906 9.15 20.2926 9.25299 20.812 9.45326L20.9919 8.98674C20.4047 8.76035 19.74 8.65 19.002 8.65V9.15ZM20.813 9.45362C21.3317 9.65125 21.7344 9.95312 22.0302 10.3576L22.4337 10.0624C22.0762 9.57354 21.5922 9.21541 20.991 8.98638L20.813 9.45362ZM22.0302 10.3576C22.3192 10.7528 22.472 11.258 22.472 11.89H22.972C22.972 11.1753 22.798 10.5605 22.4337 10.0624L22.0302 10.3576ZM22.472 11.89V13.11H22.972V11.89H22.472ZM17.732 13.3C17.732 13.6337 17.8452 13.921 18.094 14.1238L18.4099 13.7362C18.2987 13.6456 18.232 13.513 18.232 13.3H17.732ZM18.0975 14.1266C18.3405 14.3175 18.6506 14.4 19.002 14.4V13.9C18.7267 13.9 18.5367 13.8358 18.4064 13.7334L18.0975 14.1266ZM19.002 14.4C19.3527 14.4 19.6618 14.3178 19.8999 14.1238L19.584 13.7362C19.4621 13.8356 19.2778 13.9 19.002 13.9V14.4ZM19.9006 14.1232C20.1532 13.9158 20.272 13.6271 20.272 13.29H19.772C19.772 13.4996 19.7041 13.6376 19.5833 13.7368L19.9006 14.1232ZM20.272 13.29V11.71H19.772V13.29H20.272ZM20.272 11.71C20.272 11.3731 20.153 11.085 19.8964 10.8834L19.5875 11.2766C19.7042 11.3683 19.772 11.5003 19.772 11.71H20.272ZM19.9041 10.8897C19.6659 10.6868 19.3552 10.6 19.002 10.6V11.1C19.2754 11.1 19.458 11.1665 19.5798 11.2703L19.9041 10.8897ZM19.002 10.6C18.6506 10.6 18.3405 10.6825 18.0975 10.8734L18.4064 11.2666C18.5367 11.1642 18.7267 11.1 19.002 11.1V10.6ZM18.094 10.8762C17.8452 11.079 17.732 11.3663 17.732 11.7H18.232C18.232 11.487 18.2987 11.3544 18.4099 11.2638L18.094 10.8762ZM17.732 11.7V13.3H18.232V11.7H17.732ZM28.808 9.27L28.5895 9.14859L28.5886 9.15022L28.808 9.27ZM31.258 9.08L31.4348 8.90322L31.4348 8.90322L31.258 9.08ZM31.258 15.92L31.4348 16.0968L31.4348 16.0968L31.258 15.92ZM28.988 12.63H29.238C29.238 12.5143 29.1587 12.4137 29.0462 12.3868C28.9336 12.36 28.8174 12.4138 28.7651 12.517L28.988 12.63ZM28.258 14.07L28.0351 13.957C28.0326 13.9617 28.0304 13.9666 28.0283 13.9715L28.258 14.07ZM28.118 14.23L28.2764 14.4235L28.2764 14.4235L28.118 14.23ZM26.878 14.23L26.7197 14.4235L26.7197 14.4235L26.878 14.23ZM26.738 14.07L26.9678 13.9715C26.9657 13.9666 26.9635 13.9617 26.961 13.957L26.738 14.07ZM26.008 12.63L26.231 12.517C26.1787 12.4138 26.0625 12.36 25.9499 12.3868C25.8374 12.4137 25.758 12.5143 25.758 12.63H26.008ZM25.928 15.92L25.7513 15.7432L25.7513 15.7432L25.928 15.92ZM26.188 9.27L26.4075 9.15022L26.4066 9.14859L26.188 9.27ZM27.498 11.67L27.2786 11.7898C27.3224 11.8701 27.4066 11.92 27.498 11.92C27.5895 11.92 27.6737 11.8701 27.7175 11.7898L27.498 11.67ZM29.0266 9.39141C29.088 9.28079 29.1531 9.25 29.238 9.25V8.75C28.9497 8.75 28.7281 8.89921 28.5895 9.14859L29.0266 9.39141ZM29.238 9.25H31.068V8.75H29.238V9.25ZM31.068 9.25C31.0712 9.25 31.0728 9.25028 31.0733 9.25037C31.0738 9.25046 31.0737 9.25049 31.0735 9.25041C31.0726 9.25002 31.0752 9.25074 31.0813 9.25678L31.4348 8.90322C31.3361 8.8045 31.2098 8.75 31.068 8.75V9.25ZM31.0813 9.25678C31.0873 9.26281 31.088 9.26544 31.0876 9.26451C31.0876 9.26432 31.0876 9.2643 31.0877 9.26475C31.0878 9.26525 31.088 9.26689 31.088 9.27H31.588C31.588 9.12828 31.5335 9.00195 31.4348 8.90322L31.0813 9.25678ZM31.088 9.27V15.73H31.588V9.27H31.088ZM31.088 15.73C31.088 15.7331 31.0878 15.7348 31.0877 15.7352C31.0876 15.7357 31.0876 15.7357 31.0876 15.7355C31.088 15.7346 31.0873 15.7372 31.0813 15.7432L31.4348 16.0968C31.5335 15.9981 31.588 15.8717 31.588 15.73H31.088ZM31.0813 15.7432C31.0752 15.7493 31.0726 15.75 31.0735 15.7496C31.0737 15.7495 31.0738 15.7495 31.0733 15.7496C31.0728 15.7497 31.0712 15.75 31.068 15.75V16.25C31.2098 16.25 31.3361 16.1955 31.4348 16.0968L31.0813 15.7432ZM31.068 15.75H29.258V16.25H31.068V15.75ZM29.258 15.75C29.2549 15.75 29.2533 15.7497 29.2528 15.7496C29.2523 15.7495 29.2524 15.7495 29.2526 15.7496C29.2535 15.75 29.2509 15.7493 29.2448 15.7432L28.8913 16.0968C28.99 16.1955 29.1163 16.25 29.258 16.25V15.75ZM29.2448 15.7432C29.2388 15.7372 29.2381 15.7346 29.2385 15.7355C29.2385 15.7357 29.2385 15.7357 29.2384 15.7352C29.2383 15.7348 29.238 15.7331 29.238 15.73H28.738C28.738 15.8717 28.7925 15.9981 28.8913 16.0968L29.2448 15.7432ZM29.238 15.73V12.63H28.738V15.73H29.238ZM28.7651 12.517L28.0351 13.957L28.481 14.183L29.211 12.743L28.7651 12.517ZM28.0283 13.9715C28.0318 13.9633 28.0323 13.9662 28.0199 13.9804C28.0082 13.9938 27.989 14.0126 27.9597 14.0365L28.2764 14.4235C28.3583 14.3565 28.4435 14.2719 28.4878 14.1685L28.0283 13.9715ZM27.9597 14.0365C27.9394 14.0531 27.9054 14.07 27.838 14.07V14.57C27.9973 14.57 28.15 14.5269 28.2764 14.4235L27.9597 14.0365ZM27.838 14.07H27.158V14.57H27.838V14.07ZM27.158 14.07C27.0906 14.07 27.0567 14.0531 27.0364 14.0365L26.7197 14.4235C26.8461 14.5269 26.9988 14.57 27.158 14.57V14.07ZM27.0364 14.0365C27.0071 14.0126 26.9879 13.9938 26.9762 13.9804C26.9638 13.9662 26.9643 13.9633 26.9678 13.9715L26.5083 14.1685C26.5526 14.2719 26.6378 14.3565 26.7197 14.4235L27.0364 14.0365ZM26.961 13.957L26.231 12.517L25.7851 12.743L26.5151 14.183L26.961 13.957ZM25.758 12.63V15.73H26.258V12.63H25.758ZM25.758 15.73C25.758 15.7331 25.7578 15.7348 25.7577 15.7352C25.7576 15.7357 25.7576 15.7357 25.7576 15.7355C25.758 15.7346 25.7573 15.7372 25.7513 15.7432L26.1048 16.0968C26.2035 15.9981 26.258 15.8717 26.258 15.73H25.758ZM25.7513 15.7432C25.7452 15.7493 25.7426 15.75 25.7435 15.7496C25.7437 15.7495 25.7438 15.7495 25.7433 15.7496C25.7428 15.7497 25.7412 15.75 25.738 15.75V16.25C25.8798 16.25 26.0061 16.1955 26.1048 16.0968L25.7513 15.7432ZM25.738 15.75H23.928V16.25H25.738V15.75ZM23.928 15.75C23.9249 15.75 23.9233 15.7497 23.9228 15.7496C23.9223 15.7495 23.9224 15.7495 23.9226 15.7496C23.9235 15.75 23.9209 15.7493 23.9148 15.7432L23.5613 16.0968C23.66 16.1955 23.7863 16.25 23.928 16.25V15.75ZM23.9148 15.7432C23.9088 15.7372 23.9081 15.7346 23.9085 15.7355C23.9085 15.7357 23.9085 15.7357 23.9084 15.7352C23.9083 15.7348 23.908 15.7331 23.908 15.73H23.408C23.408 15.8717 23.4625 15.9981 23.5613 16.0968L23.9148 15.7432ZM23.908 15.73V9.27H23.408V15.73H23.908ZM23.908 9.27C23.908 9.26689 23.9083 9.26525 23.9084 9.26475C23.9085 9.2643 23.9085 9.26432 23.9085 9.26451C23.9081 9.26544 23.9088 9.26281 23.9148 9.25678L23.5613 8.90322C23.4625 9.00194 23.408 9.12828 23.408 9.27H23.908ZM23.9148 9.25678C23.9209 9.25074 23.9235 9.25002 23.9226 9.25041C23.9224 9.25049 23.9223 9.25046 23.9228 9.25037C23.9233 9.25028 23.9249 9.25 23.928 9.25V8.75C23.7863 8.75 23.66 8.8045 23.5613 8.90322L23.9148 9.25678ZM23.928 9.25H25.758V8.75H23.928V9.25ZM25.758 9.25C25.843 9.25 25.9081 9.28079 25.9695 9.39141L26.4066 9.14859C26.268 8.89921 26.0464 8.75 25.758 8.75V9.25ZM25.9686 9.38978L27.2786 11.7898L27.7175 11.5502L26.4075 9.15022L25.9686 9.38978ZM27.7175 11.7898L29.0275 9.38978L28.5886 9.15022L27.2786 11.5502L27.7175 11.7898ZM8.92781 21.73L8.78137 21.9326L8.78231 21.9333L8.92781 21.73ZM8.93781 27.29L9.08254 27.4938L9.08293 27.4936L8.93781 27.29ZM7.01781 25.83L7.17573 26.0238L7.1765 26.0232L7.01781 25.83ZM7.01781 23.18L6.85557 23.3705L6.86336 23.3766L7.01781 23.18ZM5.36781 22.95V22.7C5.22974 22.7 5.11781 22.8119 5.11781 22.95H5.36781ZM5.36781 26.05H5.11781C5.11781 26.1881 5.22974 26.3 5.36781 26.3V26.05ZM6.22781 21.25C7.3203 21.25 8.16347 21.486 8.78137 21.9326L9.07426 21.5274C8.34549 21.0006 7.38866 20.75 6.22781 20.75V21.25ZM8.78231 21.9333C9.382 22.3625 9.69781 23.0307 9.69781 23.99H10.1978C10.1978 22.9093 9.83363 22.0708 9.07331 21.5267L8.78231 21.9333ZM9.69781 23.99V25.01H10.1978V23.99H9.69781ZM9.69781 25.01C9.69781 25.9924 9.38331 26.6654 8.79269 27.0864L9.08293 27.4936C9.83898 26.9546 10.1978 26.1076 10.1978 25.01H9.69781ZM8.79308 27.0862C8.18243 27.5197 7.33581 27.75 6.22781 27.75V28.25C7.39982 28.25 8.35986 28.007 9.08254 27.4938L8.79308 27.0862ZM6.22781 27.75H3.03781V28.25H6.22781V27.75ZM3.03781 27.75C3.0347 27.75 3.03306 27.7497 3.03257 27.7496C3.03211 27.7495 3.03213 27.7495 3.03233 27.7496C3.03325 27.75 3.03063 27.7493 3.02459 27.7432L2.67104 28.0968C2.76976 28.1955 2.89609 28.25 3.03781 28.25V27.75ZM3.02459 27.7432C3.01855 27.7372 3.01783 27.7346 3.01822 27.7355C3.0183 27.7357 3.01827 27.7357 3.01819 27.7352C3.01809 27.7348 3.01781 27.7331 3.01781 27.73H2.51781C2.51781 27.8717 2.57231 27.9981 2.67104 28.0968L3.02459 27.7432ZM3.01781 27.73V21.27H2.51781V27.73H3.01781ZM3.01781 21.27C3.01781 21.2669 3.01809 21.2652 3.01819 21.2648C3.01827 21.2643 3.0183 21.2643 3.01822 21.2645C3.01783 21.2654 3.01855 21.2628 3.02459 21.2568L2.67104 20.9032C2.57231 21.0019 2.51781 21.1283 2.51781 21.27H3.01781ZM3.02459 21.2568C3.03063 21.2507 3.03325 21.25 3.03233 21.2504C3.03213 21.2505 3.03211 21.2505 3.03257 21.2504C3.03306 21.2503 3.0347 21.25 3.03781 21.25V20.75C2.89609 20.75 2.76976 20.8045 2.67104 20.9032L3.02459 21.2568ZM3.03781 21.25H6.22781V20.75H3.03781V21.25ZM6.27781 26.3C6.62859 26.3 6.93771 26.2178 7.17573 26.0238L6.85989 25.6362C6.73792 25.7356 6.5537 25.8 6.27781 25.8V26.3ZM7.1765 26.0232C7.42902 25.8158 7.54781 25.5271 7.54781 25.19H7.04781C7.04781 25.3996 6.97994 25.5376 6.85913 25.6368L7.1765 26.0232ZM7.54781 25.19V23.81H7.04781V25.19H7.54781ZM7.54781 23.81C7.54781 23.4731 7.42887 23.185 7.17227 22.9834L6.86336 23.3766C6.98009 23.4683 7.04781 23.6003 7.04781 23.81H7.54781ZM7.17993 22.9897C6.94177 22.7868 6.63102 22.7 6.27781 22.7V23.2C6.55127 23.2 6.73386 23.2665 6.8557 23.3703L7.17993 22.9897ZM6.27781 22.7H5.36781V23.2H6.27781V22.7ZM5.11781 22.95V26.05H5.61781V22.95H5.11781ZM5.36781 26.3H6.27781V25.8H5.36781V26.3ZM13.3139 27.66L13.5475 27.7493L13.5493 27.7441L13.3139 27.66ZM10.8139 27.94L10.6241 28.1027C10.6324 28.1124 10.6415 28.1215 10.6512 28.1298L10.8139 27.94ZM10.7539 27.78L10.5073 27.7389C10.505 27.7525 10.5039 27.7662 10.5039 27.78H10.7539ZM10.7639 27.72L10.5273 27.6393C10.5229 27.6522 10.5196 27.6654 10.5173 27.6789L10.7639 27.72ZM12.9439 21.33L13.1806 21.4108L13.1829 21.4035L12.9439 21.33ZM13.0939 21.1L12.9257 20.915L12.9257 20.915L13.0939 21.1ZM16.4739 21.1L16.6421 20.915L16.6421 20.915L16.4739 21.1ZM16.6239 21.33L16.3849 21.4036L16.3873 21.4107L16.6239 21.33ZM18.8039 27.72L19.0505 27.6789C19.0483 27.6654 19.0449 27.6522 19.0405 27.6393L18.8039 27.72ZM18.8139 27.78H19.0639C19.0639 27.7662 19.0628 27.7525 19.0605 27.7389L18.8139 27.78ZM18.7439 27.94L18.9207 28.1168L18.9207 28.1168L18.7439 27.94ZM16.2539 27.66L16.0184 27.7441L16.0204 27.7493L16.2539 27.66ZM16.0039 26.96L16.2393 26.8759C16.2038 26.7764 16.1096 26.71 16.0039 26.71V26.96ZM13.5639 26.96V26.71C13.4583 26.71 13.364 26.7764 13.3285 26.8759L13.5639 26.96ZM14.7839 22.93L15.0205 22.8492C14.986 22.748 14.8909 22.68 14.7839 22.68C14.677 22.68 14.5819 22.748 14.5473 22.8492L14.7839 22.93ZM14.0739 25.01L13.8373 24.9292C13.8112 25.0056 13.8236 25.0898 13.8706 25.1554C13.9175 25.2211 13.9932 25.26 14.0739 25.26V25.01ZM15.4939 25.01V25.26C15.5746 25.26 15.6503 25.2211 15.6972 25.1554C15.7442 25.0898 15.7566 25.0056 15.7305 24.9292L15.4939 25.01ZM13.0804 27.5707C13.049 27.6528 13.0139 27.6942 12.9857 27.7155C12.9598 27.7351 12.9239 27.75 12.8639 27.75V28.25C13.0173 28.25 13.163 28.2083 13.2871 28.1145C13.4089 28.0224 13.4921 27.8938 13.5474 27.7493L13.0804 27.5707ZM12.8639 27.75H10.9739V28.25H12.8639V27.75ZM10.9739 27.75C10.9723 27.75 10.9738 27.7498 10.9767 27.7509C10.9795 27.752 10.9795 27.7527 10.9766 27.7502L10.6512 28.1298C10.742 28.2076 10.8527 28.25 10.9739 28.25V27.75ZM11.0037 27.7773C11.0012 27.7744 11.0019 27.7744 11.003 27.7772C11.0041 27.7801 11.0039 27.7816 11.0039 27.78H10.5039C10.5039 27.9013 10.5463 28.0119 10.6241 28.1027L11.0037 27.7773ZM11.0005 27.8211L11.0105 27.7611L10.5173 27.6789L10.5073 27.7389L11.0005 27.8211ZM11.0005 27.8007L13.1805 21.4107L12.7073 21.2493L10.5273 27.6393L11.0005 27.8007ZM13.1829 21.4035C13.1951 21.3636 13.2187 21.3244 13.2621 21.285L12.9257 20.915C12.8224 21.0089 12.746 21.1231 12.705 21.2565L13.1829 21.4035ZM13.2621 21.285C13.2777 21.2708 13.3116 21.25 13.3939 21.25V20.75C13.2229 20.75 13.0568 20.7959 12.9257 20.915L13.2621 21.285ZM13.3939 21.25H16.1739V20.75H13.3939V21.25ZM16.1739 21.25C16.2563 21.25 16.2901 21.2708 16.3057 21.285L16.6421 20.915C16.511 20.7959 16.3449 20.75 16.1739 20.75V21.25ZM16.3057 21.285C16.3491 21.3244 16.3727 21.3636 16.385 21.4035L16.8629 21.2565C16.8218 21.1231 16.7454 21.0089 16.6421 20.915L16.3057 21.285ZM16.3873 21.4107L18.5673 27.8007L19.0405 27.6393L16.8605 21.2493L16.3873 21.4107ZM18.5573 27.7611L18.5673 27.8211L19.0605 27.7389L19.0505 27.6789L18.5573 27.7611ZM18.5639 27.78C18.5639 27.7787 18.564 27.7764 18.5647 27.7733C18.5653 27.7703 18.5662 27.7674 18.5674 27.7648C18.5698 27.7593 18.5713 27.759 18.5671 27.7632L18.9207 28.1168C19.0091 28.0284 19.0639 27.9132 19.0639 27.78H18.5639ZM18.5671 27.7632C18.5698 27.7605 18.5755 27.7561 18.5836 27.7529C18.5913 27.7498 18.5957 27.75 18.5939 27.75V28.25C18.7157 28.25 18.8307 28.2067 18.9207 28.1168L18.5671 27.7632ZM18.5939 27.75H16.7039V28.25H18.5939V27.75ZM16.7039 27.75C16.644 27.75 16.608 27.7351 16.5821 27.7155C16.5539 27.6942 16.5188 27.6528 16.4874 27.5707L16.0204 27.7493C16.0757 27.8938 16.1589 28.0224 16.2807 28.1145C16.4048 28.2083 16.5505 28.25 16.7039 28.25V27.75ZM16.4893 27.5759L16.2393 26.8759L15.7685 27.0441L16.0185 27.7441L16.4893 27.5759ZM16.0039 26.71H13.5639V27.21H16.0039V26.71ZM13.3285 26.8759L13.0785 27.5759L13.5493 27.7441L13.7993 27.0441L13.3285 26.8759ZM14.5473 22.8492L13.8373 24.9292L14.3105 25.0908L15.0205 23.0108L14.5473 22.8492ZM14.0739 25.26H15.4939V24.76H14.0739V25.26ZM15.7305 24.9292L15.0205 22.8492L14.5473 23.0108L15.2573 25.0908L15.7305 24.9292ZM23.02 21.08L22.8432 21.2568L22.8432 21.2568L23.02 21.08ZM23.1 25.95H22.85C22.85 26.0881 22.9619 26.2 23.1 26.2V25.95ZM26.51 26.2C26.5131 26.2 26.5148 26.2003 26.5152 26.2004C26.5157 26.2005 26.5157 26.2005 26.5155 26.2004C26.5146 26.2 26.5172 26.2007 26.5232 26.2068L26.8768 25.8532C26.7781 25.7545 26.6517 25.7 26.51 25.7V26.2ZM26.5232 26.2068C26.5293 26.2128 26.53 26.2154 26.5296 26.2145C26.5295 26.2143 26.5295 26.2143 26.5296 26.2148C26.5297 26.2152 26.53 26.2169 26.53 26.22H27.03C27.03 26.0783 26.9755 25.9519 26.8768 25.8532L26.5232 26.2068ZM26.53 26.22V27.73H27.03V26.22H26.53ZM26.53 27.73C26.53 27.7331 26.5297 27.7348 26.5296 27.7352C26.5295 27.7357 26.5295 27.7357 26.5296 27.7355C26.53 27.7346 26.5293 27.7372 26.5232 27.7432L26.8768 28.0968C26.9755 27.9981 27.03 27.8717 27.03 27.73H26.53ZM26.5232 27.7432C26.5172 27.7493 26.5146 27.75 26.5155 27.7496C26.5157 27.7495 26.5157 27.7495 26.5152 27.7496C26.5148 27.7497 26.5131 27.75 26.51 27.75V28.25C26.6517 28.25 26.7781 28.1955 26.8768 28.0968L26.5232 27.7432ZM26.51 27.75H20.67V28.25H26.51V27.75ZM20.67 27.75C20.6669 27.75 20.6652 27.7497 20.6648 27.7496C20.6643 27.7495 20.6643 27.7495 20.6645 27.7496C20.6654 27.75 20.6628 27.7493 20.6568 27.7432L20.3032 28.0968C20.4019 28.1955 20.5283 28.25 20.67 28.25V27.75ZM20.6568 27.7432C20.6507 27.7372 20.65 27.7346 20.6504 27.7355C20.6505 27.7357 20.6505 27.7357 20.6504 27.7352C20.6503 27.7348 20.65 27.7331 20.65 27.73H20.15C20.15 27.8717 20.2045 27.9981 20.3032 28.0968L20.6568 27.7432ZM20.65 27.73V21.27H20.15V27.73H20.65ZM20.65 21.27C20.65 21.2669 20.6503 21.2652 20.6504 21.2648C20.6505 21.2643 20.6505 21.2643 20.6504 21.2645C20.65 21.2654 20.6507 21.2628 20.6568 21.2568L20.3032 20.9032C20.2045 21.0019 20.15 21.1283 20.15 21.27H20.65ZM20.6568 21.2568C20.6628 21.2507 20.6654 21.25 20.6645 21.2504C20.6643 21.2505 20.6643 21.2505 20.6648 21.2504C20.6652 21.2503 20.6669 21.25 20.67 21.25V20.75C20.5283 20.75 20.4019 20.8045 20.3032 20.9032L20.6568 21.2568ZM20.67 21.25H22.83V20.75H20.67V21.25ZM22.83 21.25C22.8331 21.25 22.8348 21.2503 22.8352 21.2504C22.8357 21.2505 22.8357 21.2505 22.8355 21.2504C22.8346 21.25 22.8372 21.2507 22.8432 21.2568L23.1968 20.9032C23.0981 20.8045 22.9717 20.75 22.83 20.75V21.25ZM22.8432 21.2568C22.8493 21.2628 22.85 21.2654 22.8496 21.2645C22.8495 21.2643 22.8495 21.2643 22.8496 21.2648C22.8497 21.2652 22.85 21.2669 22.85 21.27H23.35C23.35 21.1283 23.2955 21.0019 23.1968 20.9032L22.8432 21.2568ZM22.85 21.27V25.95H23.35V21.27H22.85ZM23.1 26.2H26.51V25.7H23.1V26.2ZM35.1761 26.13L34.9993 26.3068L34.9993 26.3068L35.1761 26.13ZM35.1761 27.92L34.9993 27.7432L34.9993 27.7432L35.1761 27.92ZM35.0761 21.08L34.8993 21.2568L34.8993 21.2568L35.0761 21.08ZM35.0761 22.87L34.8993 22.6932L34.8993 22.6932L35.0761 22.87ZM30.9961 22.95V22.7C30.858 22.7 30.7461 22.8119 30.7461 22.95H30.9961ZM30.9961 23.58H30.7461C30.7461 23.7181 30.858 23.83 30.9961 23.83V23.58ZM34.5261 23.66L34.3493 23.8368L34.3493 23.8368L34.5261 23.66ZM34.5261 25.34L34.3493 25.1632L34.3493 25.1632L34.5261 25.34ZM30.9961 25.42V25.17C30.858 25.17 30.7461 25.2819 30.7461 25.42H30.9961ZM30.9961 26.05H30.7461C30.7461 26.1881 30.858 26.3 30.9961 26.3V26.05ZM34.9861 26.3C34.9892 26.3 34.9908 26.3003 34.9913 26.3004C34.9918 26.3005 34.9918 26.3005 34.9916 26.3004C34.9907 26.3 34.9933 26.3007 34.9993 26.3068L35.3529 25.9532C35.2541 25.8545 35.1278 25.8 34.9861 25.8V26.3ZM34.9993 26.3068C35.0054 26.3128 35.0061 26.3154 35.0057 26.3145C35.0056 26.3143 35.0056 26.3143 35.0057 26.3148C35.0058 26.3152 35.0061 26.3169 35.0061 26.32H35.5061C35.5061 26.1783 35.4516 26.0519 35.3529 25.9532L34.9993 26.3068ZM35.0061 26.32V27.73H35.5061V26.32H35.0061ZM35.0061 27.73C35.0061 27.7331 35.0058 27.7348 35.0057 27.7352C35.0056 27.7357 35.0056 27.7357 35.0057 27.7355C35.0061 27.7346 35.0054 27.7372 34.9993 27.7432L35.3529 28.0968C35.4516 27.9981 35.5061 27.8717 35.5061 27.73H35.0061ZM34.9993 27.7432C34.9933 27.7493 34.9907 27.75 34.9916 27.7496C34.9918 27.7495 34.9918 27.7495 34.9913 27.7496C34.9908 27.7497 34.9892 27.75 34.9861 27.75V28.25C35.1278 28.25 35.2541 28.1955 35.3529 28.0968L34.9993 27.7432ZM34.9861 27.75H28.6661V28.25H34.9861V27.75ZM28.6661 27.75C28.663 27.75 28.6613 27.7497 28.6608 27.7496C28.6604 27.7495 28.6604 27.7495 28.6606 27.7496C28.6615 27.75 28.6589 27.7493 28.6529 27.7432L28.2993 28.0968C28.398 28.1955 28.5244 28.25 28.6661 28.25V27.75ZM28.6529 27.7432C28.6468 27.7372 28.6461 27.7346 28.6465 27.7355C28.6466 27.7357 28.6466 27.7357 28.6465 27.7352C28.6464 27.7348 28.6461 27.7331 28.6461 27.73H28.1461C28.1461 27.8717 28.2006 27.9981 28.2993 28.0968L28.6529 27.7432ZM28.6461 27.73V21.27H28.1461V27.73H28.6461ZM28.6461 21.27C28.6461 21.2669 28.6464 21.2652 28.6465 21.2648C28.6466 21.2643 28.6466 21.2643 28.6465 21.2645C28.6461 21.2654 28.6468 21.2628 28.6529 21.2568L28.2993 20.9032C28.2006 21.0019 28.1461 21.1283 28.1461 21.27H28.6461ZM28.6529 21.2568C28.6589 21.2507 28.6615 21.25 28.6606 21.2504C28.6604 21.2505 28.6604 21.2505 28.6608 21.2504C28.6613 21.2503 28.663 21.25 28.6661 21.25V20.75C28.5244 20.75 28.398 20.8045 28.2993 20.9032L28.6529 21.2568ZM28.6661 21.25H34.8861V20.75H28.6661V21.25ZM34.8861 21.25C34.8892 21.25 34.8908 21.2503 34.8913 21.2504C34.8918 21.2505 34.8918 21.2505 34.8916 21.2504C34.8907 21.25 34.8933 21.2507 34.8993 21.2568L35.2529 20.9032C35.1541 20.8045 35.0278 20.75 34.8861 20.75V21.25ZM34.8993 21.2568C34.9054 21.2628 34.9061 21.2654 34.9057 21.2645C34.9056 21.2643 34.9056 21.2643 34.9057 21.2648C34.9058 21.2652 34.9061 21.2669 34.9061 21.27H35.4061C35.4061 21.1283 35.3516 21.0019 35.2529 20.9032L34.8993 21.2568ZM34.9061 21.27V22.68H35.4061V21.27H34.9061ZM34.9061 22.68C34.9061 22.6831 34.9058 22.6848 34.9057 22.6852C34.9056 22.6857 34.9056 22.6857 34.9057 22.6855C34.9061 22.6846 34.9054 22.6872 34.8993 22.6932L35.2529 23.0468C35.3516 22.9481 35.4061 22.8217 35.4061 22.68H34.9061ZM34.8993 22.6932C34.8933 22.6993 34.8907 22.7 34.8916 22.6996C34.8918 22.6995 34.8918 22.6995 34.8913 22.6996C34.8908 22.6997 34.8892 22.7 34.8861 22.7V23.2C35.0278 23.2 35.1541 23.1455 35.2529 23.0468L34.8993 22.6932ZM34.8861 22.7H30.9961V23.2H34.8861V22.7ZM30.7461 22.95V23.58H31.2461V22.95H30.7461ZM30.9961 23.83H34.3361V23.33H30.9961V23.83ZM34.3361 23.83C34.3392 23.83 34.3408 23.8303 34.3413 23.8304C34.3418 23.8305 34.3418 23.8305 34.3416 23.8304C34.3407 23.83 34.3433 23.8307 34.3493 23.8368L34.7029 23.4832C34.6041 23.3845 34.4778 23.33 34.3361 23.33V23.83ZM34.3493 23.8368C34.3554 23.8428 34.3561 23.8454 34.3557 23.8445C34.3556 23.8443 34.3556 23.8443 34.3557 23.8448C34.3558 23.8452 34.3561 23.8469 34.3561 23.85H34.8561C34.8561 23.7083 34.8016 23.5819 34.7029 23.4832L34.3493 23.8368ZM34.3561 23.85V25.15H34.8561V23.85H34.3561ZM34.3561 25.15C34.3561 25.1531 34.3558 25.1548 34.3557 25.1552C34.3556 25.1557 34.3556 25.1557 34.3557 25.1555C34.3561 25.1546 34.3554 25.1572 34.3493 25.1632L34.7029 25.5168C34.8016 25.4181 34.8561 25.2917 34.8561 25.15H34.3561ZM34.3493 25.1632C34.3433 25.1693 34.3407 25.17 34.3416 25.1696C34.3418 25.1695 34.3418 25.1695 34.3413 25.1696C34.3408 25.1697 34.3392 25.17 34.3361 25.17V25.67C34.4778 25.67 34.6041 25.6155 34.7029 25.5168L34.3493 25.1632ZM34.3361 25.17H30.9961V25.67H34.3361V25.17ZM30.7461 25.42V26.05H31.2461V25.42H30.7461ZM30.9961 26.3H34.9861V25.8H30.9961V26.3Z" fill="#EB5757"/>
</g>
<defs>
<clipPath id="clip0">
<rect width="38" height="37" fill="white"/>
</clipPath>
</defs>
</svg>
